<?xml version="1.0" encoding="UTF-8" standalone="no"?>
<!DOCTYPE svg PUBLIC "-//W3C//DTD SVG 1.1//EN" "http://www.w3.org/Graphics/SVG/1.1/DTD/svg11.dtd">
<svg width="100%" height="100%" viewBox="0 0 448 486" version="1.1" xmlns="http://www.w3.org/2000/svg" xmlns:xlink="http://www.w3.org/1999/xlink" xml:space="preserve" xmlns:serif="http://www.serif.com/" style="fill-rule:evenodd;clip-rule:evenodd;stroke-linejoin:round;stroke-miterlimit:2;">
    <g transform="matrix(1,0,0,1,-1435.372848,-926.328486)">
        <g id="expanded-thick" serif:id="expanded thick" transform="matrix(1,0,0,1,1254.450035,558.75234)">
            <path d="M424.894,451.61C425.319,451.485 425.699,451.226 425.971,450.864C426.365,450.341 426.49,449.663 426.309,449.034C426.49,449.665 428.228,456.333 432.65,464.704C442.704,483.735 459.037,490.663 463.901,493.149C529.283,526.552 541.469,558.439 543.625,563.64C543.809,564.085 543.828,564.558 543.709,564.99L558.717,586.82L558.705,586.842L558.883,587.138C566.096,591.76 573.211,596.536 580.387,601.217C624.69,630.11 624.75,630.039 625.672,630.894C628.447,633.472 628.346,636.707 628.329,637.259C628.312,637.81 628.213,641.038 625.284,643.444L625.282,643.446L559.972,696.963C551.9,709.471 541.935,718.11 536.741,722.127C516.1,747.26 512.306,789.635 511.517,828.372C511.495,829.498 511.465,829.493 511.182,831.999C510.978,833.809 510.925,833.797 510.576,835.586C510.109,837.984 510.028,837.96 509.358,840.309C508.375,843.756 508.392,843.758 508.296,844.054C508.283,844.093 508.269,844.131 508.255,844.169L505.323,851.689L505.053,852.183C505.021,852.227 504.941,852.314 504.54,852.754C504.145,853.187 503.586,853.434 503,853.434C502.414,853.434 501.855,853.187 501.46,852.754C501.349,852.632 501.221,852.525 501.109,852.402L500.622,851.542C500.126,850.28 497.745,844.068 497.726,844.006C497.677,843.851 495.85,837.029 495.824,836.903C495.806,836.817 495.152,832.893 495.149,832.865C495.1,832.274 494.84,828.908 494.839,828.872C494.811,826.752 495.119,818.356 495.152,817.442C496.611,777.859 502.261,743.933 518.091,719.485C515.264,716.07 513.255,711.317 511.198,706.11C508.012,698.043 504.655,688.804 496.723,682.646C487.262,675.302 478.835,662.827 475.312,649.364C471.734,635.693 473.194,621.042 483.449,609.609C486.814,605.857 487.989,602.446 487.521,599.314C487.044,596.129 484.949,593.32 482.181,590.831C473.015,582.59 456.441,578.007 456.441,578.007C455.778,577.822 455.25,577.323 455.028,576.672C454.806,576.021 454.92,575.303 455.332,574.752C462.712,564.883 476.244,561.708 489.912,561.679C505.416,561.647 521.005,565.554 527.033,567.248C522.815,558.476 507.236,533.517 454.051,506.842C446.395,503.002 427.416,493.11 416.018,468.683C415.307,467.159 411.98,459.496 410.137,450.128C408.852,443.593 406.516,429.791 409.496,407.871C410.238,402.412 411.988,393.251 414.784,383.582C414.045,384.357 413.309,385.162 412.594,385.991C411.22,387.584 410.316,388.536 408.416,391.132C406.697,393.482 397.882,403.159 395.26,420.878C394.98,422.769 391.05,443.044 402.258,473.082C404.414,478.862 406.29,482.671 406.644,483.379L406.912,484.202C406.964,484.665 407.128,485.136 407.201,485.6C407.299,486.232 407.29,486.857 407.116,487.466L406.725,488.215C406.514,488.488 405.463,489.813 405.229,490.101L405.043,490.312L404.352,490.771L403.803,490.912C403.34,490.965 402.868,491.129 402.403,491.202C401.771,491.301 401.147,491.292 400.538,491.118C399.546,490.834 398.997,490.554 398.588,490.237C398.029,489.805 397.709,489.256 397.022,488.03C394.925,484.285 381.041,458.842 380.651,430.645C380.62,428.383 380.641,425.186 381.014,421.369C374.33,428.725 369.487,437.271 366.752,444.832C365.23,449.039 354.542,473.453 375.502,488.257C376.537,488.988 377.016,489.298 377.388,489.817C377.676,490.219 377.928,490.746 378.168,491.699L378.204,492.547C378.157,492.89 377.907,494.568 377.848,494.936L377.793,495.21L377.426,495.952L377.019,496.35C376.645,496.627 376.319,497.004 375.953,497.299C375.457,497.699 374.913,498.003 374.3,498.157C373.342,498.398 372.752,498.433 372.259,498.375C371.587,498.294 371.056,498.012 369.878,497.37C358.743,491.306 352.2,482.298 349.371,471.971C348.445,473.821 347.373,476.04 345.821,479.292C345.158,480.683 342.701,486.001 341.788,489.216C341.752,489.342 341.613,489.832 341.442,490.641C343.396,492.059 346.88,493.652 351.077,495.562C358.909,499.127 369.13,503.594 377.363,509.321C383.306,513.455 399.71,525.784 395.583,547.204C393.831,556.298 387.012,565.72 376.928,575.135C362.347,588.751 340.921,602.502 319.063,615.686C318.587,616.175 317.859,616.81 316.777,617.466C315.5,618.24 313.937,619.066 311.98,619.935C302.887,625.362 293.842,630.681 285.311,635.842C276.391,641.238 275.645,641.854 274.295,642.566C271.478,644.053 271.495,644.082 270.618,644.464C268.207,645.513 268.243,645.592 265.766,646.481C260.475,648.38 260.527,648.517 258.41,649.181C253.967,650.572 251.537,651.562 251.084,651.734L250.448,651.89L249.66,651.809L249.187,651.598L248.796,651.294C248.602,651.102 248.464,650.858 248.27,650.665C247.582,649.983 247.455,648.917 247.963,648.093C249.277,645.96 252.418,641.344 253.88,639.667C256.366,636.815 259.199,633.793 259.211,633.782C259.845,633.189 260.379,632.698 260.831,632.289C258.02,632.735 255.073,633.185 251.982,633.637C251.69,633.679 251.698,633.762 243.282,634.388C241.782,634.499 234.534,634.88 233.361,634.92C218.129,635.431 210.918,635.465 198.383,635.382C196.857,635.372 189.941,635.281 182.947,635.083C181.886,635.053 181.017,634.229 180.93,633.171C180.843,632.113 181.566,631.158 182.608,630.955C193.096,628.913 196.823,628.117 219.861,623.315C228.454,621.524 228.441,621.477 237.031,619.67C241.164,618.801 241.161,618.811 245.298,617.966C247.657,617.484 247.644,617.427 249.572,617.145C259.8,615.65 290.106,611.112 304.443,605.038C323.652,593.537 343.639,581.119 358.265,569.273C367.773,561.571 375.008,554.169 378.084,547.405C378.094,547.382 380.005,543.774 379.471,538.78C378.704,531.613 372.98,526.219 365.867,521.682C354.291,514.297 338.957,509.286 331.795,504.199C329.097,502.282 327.006,500.189 325.784,497.556C324.545,494.889 324.161,491.645 325.1,487.377C326.246,482.166 329.747,476.149 330.281,475.238C332.333,471.735 334.261,468.704 339.285,462.294C342.388,458.336 343.685,456.771 348.158,451.962C348.645,448.048 349.517,444.094 350.74,440.171C351.034,439.228 352.775,434.193 355.957,428.244C357.872,424.665 368.188,405.525 388.01,394.684C388.199,394.581 388.761,394.273 389.595,394.023C391.309,391.065 393.347,388.106 395.769,385.209C397.607,383.011 399.29,381.503 399.621,381.206C404.335,376.983 410.289,372.754 419.894,368.925C420.372,368.245 421.222,367.908 422.046,368.09C422.398,367.938 422.421,367.866 422.457,367.85L423.143,367.666C424.87,367.501 424.88,367.606 425.024,367.65C425.375,367.757 425.603,367.845 425.779,367.935L426.261,368.25L426.666,368.663C426.789,368.819 426.921,369.027 427.095,369.355C427.255,369.656 427.352,369.872 427.413,370.053C428.243,370.513 428.67,371.494 428.406,372.436C424.043,387.994 420.234,412.797 423.344,434.832C424.369,442.091 425.298,445.45 426.304,449.018L426.306,449.027L425.689,449.842L424.741,451.113C424.788,451.268 424.839,451.434 424.894,451.61ZM533.903,722.346C534.265,722.635 534.721,722.801 535.203,722.801C535.782,722.801 536.334,722.56 536.727,722.138L536.665,722.186C536.739,722.118 536.812,722.041 536.884,721.954L535.203,722.801L534.583,721.481C534.354,721.767 534.127,722.055 533.903,722.346ZM534.659,721.386L535.282,722.706L534.781,721.235C534.74,721.285 534.7,721.335 534.659,721.386ZM560.88,674.614C571.78,665.695 582.711,656.813 593.616,647.9L549.816,651.289L549.769,651.292C549.603,651.301 549.435,651.308 549.266,651.313C551.984,660.971 556.966,669.187 560.88,674.614ZM547.374,634.818C547.748,634.761 548.119,634.713 548.483,634.676C550.481,634.476 552.486,634.366 554.488,634.211L595.592,631.03L555.992,605.205C554.607,609.73 552.664,615.466 549.952,622.729C548.428,626.809 547.625,630.862 547.374,634.818Z"/>
        </g>
    </g>
</svg>
