<?xml version="1.0" encoding="UTF-8" standalone="no"?>
<!DOCTYPE svg PUBLIC "-//W3C//DTD SVG 1.1//EN" "http://www.w3.org/Graphics/SVG/1.1/DTD/svg11.dtd">
<svg width="100%" height="100%" viewBox="0 0 592 592" version="1.1" xmlns="http://www.w3.org/2000/svg" xmlns:xlink="http://www.w3.org/1999/xlink" xml:space="preserve" xmlns:serif="http://www.serif.com/" style="fill-rule:evenodd;clip-rule:evenodd;stroke-miterlimit:1;">
    <g transform="matrix(1,0,0,1,-634.722107,-1276.196522)">
        <g id="Circle-Text" serif:id="Circle Text" transform="matrix(0.757163,0,0,0.757163,623.920001,1109.52204)">
            <path d="M425.097,452.247C425.652,452.08 426.148,451.74 426.505,451.266C427.025,450.575 427.19,449.68 426.951,448.85C427.131,449.475 428.854,456.088 433.241,464.392C443.199,483.241 459.388,490.092 464.205,492.554C529.869,526.101 542.077,558.161 544.242,563.384C544.441,563.863 544.494,564.368 544.421,564.847L559.267,586.441L559.252,586.47L559.361,586.65C566.535,591.251 573.613,596.001 580.752,600.657C625.148,629.611 625.203,629.547 626.126,630.405C629.124,633.19 629.016,636.684 628.997,637.279C628.979,637.875 628.872,641.362 625.708,643.96L625.705,643.962L560.477,697.412C552.392,709.909 542.441,718.556 537.21,722.609C516.693,747.649 512.97,789.833 512.186,828.386C512.162,829.53 512.134,829.526 511.846,832.074C511.639,833.91 511.586,833.898 511.232,835.714C510.759,838.14 510.679,838.116 510.001,840.493C509.011,843.96 509.028,843.962 508.931,844.26C508.915,844.311 508.897,844.362 508.877,844.412L505.945,851.932L505.592,852.577C505.557,852.625 505.473,852.723 505.033,853.205C504.512,853.776 503.774,854.102 503,854.102C502.226,854.102 501.488,853.776 500.967,853.204C500.855,853.082 500.727,852.975 500.615,852.853L500,851.787C499.501,850.517 497.107,844.267 497.088,844.206C497.039,844.049 495.196,837.165 495.17,837.039C495.152,836.951 494.486,832.95 494.484,832.921C494.433,832.324 494.172,828.918 494.171,828.881C494.142,826.754 494.451,818.334 494.485,817.417C495.941,777.915 501.583,744.032 517.268,719.528C514.563,716.094 512.586,711.441 510.577,706.355C507.431,698.391 504.145,689.253 496.313,683.174C486.749,675.75 478.227,663.142 474.665,649.533C471.032,635.649 472.537,620.775 482.952,609.163C486.145,605.603 487.304,602.385 486.86,599.413C486.405,596.371 484.378,593.705 481.734,591.328C472.665,583.174 456.261,578.65 456.261,578.65C455.387,578.407 454.688,577.747 454.396,576.887C454.103,576.028 454.253,575.079 454.796,574.352C462.296,564.324 476.023,561.04 489.91,561.011C504.369,560.981 518.901,564.358 525.763,566.206C520.704,556.497 504.239,532.761 453.751,507.44C446.033,503.568 426.903,493.591 415.413,468.966C414.696,467.429 411.339,459.703 409.482,450.257C408.19,443.688 405.838,429.815 408.834,407.781C409.51,402.812 411.016,394.79 413.383,386.102L413.1,386.428C411.737,388.007 410.84,388.952 408.956,391.527C407.253,393.854 398.517,403.432 395.921,420.976C395.643,422.855 391.747,443 402.884,472.848C405.027,478.591 406.889,482.377 407.241,483.08L407.576,484.128C407.627,484.581 407.79,485.042 407.861,485.498C407.922,485.892 407.947,486.285 407.924,486.673L407.759,487.649L407.254,488.624C407.041,488.899 405.983,490.232 405.747,490.522L405.516,490.783L404.605,491.39L403.879,491.576C403.424,491.628 402.962,491.791 402.506,491.862L401.33,491.925L400.354,491.76C399.246,491.443 398.636,491.12 398.179,490.766C397.565,490.291 397.193,489.703 396.439,488.356C394.331,484.591 380.375,459.007 379.983,430.654C379.957,428.786 379.967,426.285 380.178,423.325C374.242,430.255 369.905,438.081 367.38,445.059C365.886,449.19 355.309,473.177 375.887,487.711C377.017,488.509 377.525,488.862 377.931,489.428C378.254,489.879 378.547,490.466 378.816,491.536L378.866,492.637C378.819,492.982 378.567,494.671 378.508,495.042L378.438,495.382L377.954,496.361L377.416,496.887C377.049,497.159 376.732,497.53 376.373,497.819L375.388,498.46L374.463,498.805C373.392,499.074 372.732,499.104 372.18,499.038C371.442,498.95 370.852,498.661 369.558,497.957C358.841,492.121 352.313,483.599 349.212,473.797C348.455,475.338 347.571,477.176 346.425,479.58C345.768,480.956 343.334,486.217 342.431,489.398C342.403,489.497 342.311,489.823 342.189,490.354C344.155,491.687 347.442,493.174 351.354,494.954C359.217,498.533 369.478,503.023 377.745,508.773C383.791,512.978 400.437,525.539 396.239,547.331C394.466,556.536 387.592,566.093 377.384,575.624C362.79,589.251 341.357,603.018 319.481,616.214C318.976,616.724 318.223,617.371 317.123,618.037C315.834,618.819 314.258,619.653 312.288,620.529C303.208,625.949 294.176,631.26 285.657,636.414C276.71,641.826 275.961,642.443 274.607,643.157C271.756,644.662 271.772,644.69 270.884,645.076C268.453,646.134 268.489,646.214 265.991,647.11C260.682,649.016 260.734,649.153 258.609,649.818C254.19,651.202 251.773,652.187 251.322,652.359L250.507,652.556L249.467,652.449L248.841,652.171L248.326,651.769C248.134,651.579 247.817,651.174 247.754,651.094C246.886,650.192 246.735,648.813 247.394,647.742C248.723,645.587 251.899,640.923 253.376,639.228C255.883,636.352 258.743,633.305 258.755,633.293L258.758,633.291C256.609,633.625 254.384,633.961 252.078,634.298C251.785,634.341 251.793,634.425 243.332,635.054C241.828,635.166 234.56,635.548 233.384,635.588C218.14,636.099 210.923,636.133 198.378,636.05C196.851,636.04 189.929,635.949 182.928,635.751C181.527,635.711 180.379,634.623 180.264,633.226C180.149,631.828 181.104,630.567 182.48,630.299C192.966,628.258 196.692,627.462 219.724,622.661C228.317,620.87 228.304,620.823 236.893,619.016C241.028,618.147 241.025,618.157 245.165,617.311C247.544,616.825 247.531,616.768 249.476,616.484C259.663,614.994 289.83,610.487 304.14,604.441C323.308,592.963 343.25,580.574 357.844,568.753C367.254,561.132 374.432,553.823 377.476,547.129C377.486,547.107 379.319,543.644 378.806,538.851C378.059,531.873 372.433,526.663 365.508,522.245C353.922,514.854 338.576,509.835 331.408,504.744C328.606,502.753 326.446,500.571 325.177,497.837C323.888,495.059 323.469,491.68 324.447,487.234C325.611,481.94 329.162,475.826 329.704,474.901C331.768,471.377 333.706,468.328 338.759,461.882C341.84,457.951 343.148,456.371 347.522,451.665C348.019,447.782 348.89,443.862 350.102,439.972C350.399,439.02 352.155,433.936 355.368,427.929C357.299,424.321 367.704,405.027 387.69,394.098C387.874,393.997 388.386,393.716 389.148,393.464C390.852,390.549 392.87,387.635 395.256,384.781C397.126,382.544 398.839,381.011 399.175,380.709C404.061,376.331 410.265,371.945 420.423,367.999L418.922,369.482C418.761,370.15 418.856,370.858 419.193,371.463C419.306,371.415 419.42,371.368 419.534,371.32C419.469,371.155 419.419,370.982 419.386,370.802C419.146,369.495 419.873,368.204 421.115,367.733L421.569,367.562C421.676,367.522 421.806,367.465 421.806,367.465C421.806,367.465 421.571,367.619 421.532,367.651L422.265,367.205L423.079,367.001C425.044,366.813 425.056,366.961 425.22,367.011L426.083,367.34L426.685,367.733L427.19,368.249L427.685,369.041L427.926,369.583C428.897,370.23 429.377,371.446 429.049,372.616C424.705,388.106 420.909,412.8 424.006,434.739C425.024,441.951 425.947,445.289 426.946,448.834L426.949,448.845L425.96,450.153L424.887,451.587C424.951,451.793 425.021,452.013 425.097,452.247ZM348.276,454.902C348.213,454.843 348.153,454.782 348.095,454.717C347.573,454.133 347.325,453.354 347.413,452.575C347.445,452.292 347.479,452.008 347.515,451.724C346.999,452.494 346.9,453.485 347.278,454.353C347.433,454.71 347.658,455.021 347.933,455.275C348.045,455.153 348.159,455.029 348.276,454.902ZM533.496,722.876C533.973,723.253 534.571,723.469 535.203,723.469C535.949,723.469 536.661,723.166 537.177,722.635L537.108,722.688C537.206,722.597 537.303,722.495 537.398,722.38L535.203,723.469L534.386,721.729C534.085,722.108 533.789,722.49 533.496,722.876ZM534.462,721.633L535.282,723.374L534.621,721.433C534.568,721.5 534.515,721.566 534.462,721.633ZM550.141,651.934C552.78,660.824 557.308,668.426 561.008,673.645C571.176,665.327 581.37,657.041 591.543,648.73L550.141,651.934ZM548.1,634.046L548.416,634.012C550.419,633.811 552.43,633.7 554.436,633.545L593.58,630.516L556.37,606.249C555.001,610.647 553.129,616.131 550.578,622.963C549.182,626.699 548.402,630.411 548.1,634.046Z"/>
            <g transform="matrix(-1.177079,0.598985,-0.598985,-1.177079,101.293775,511.759159)">
                <g transform="matrix(-0.644022,0.765007,-0.765007,-0.644022,-31.824268,-103.016946)">
                    <text x="8.056px" y="-58.913px" style="font-family:'ForestionAged', 'Forestion';font-size:83.333px;">J</text>
                </g>
                <g transform="matrix(-0.836022,0.548696,-0.548696,-0.836022,-62.09554,-8.361055)">
                    <text x="-29.798px" y="-13.459px" style="font-family:'ForestionAged', 'Forestion';font-size:83.333px;">a</text>
                </g>
                <g transform="matrix(-0.968009,0.250915,-0.250915,-0.968009,-158.20655,64.903962)">
                    <text x="-83.241px" y="22.367px" style="font-family:'ForestionAged', 'Forestion';font-size:83.333px;">k</text>
                </g>
                <g transform="matrix(-0.99717,-0.075182,0.075182,-0.99717,-304.231897,68.992707)">
                    <text x="-150.817px" y="40.223px" style="font-family:'ForestionAged', 'Forestion';font-size:83.333px;">e</text>
                </g>
                <g transform="matrix(-0.842154,-0.539236,0.539236,-0.842154,-478.515063,-90.122526)">
                    <text x="-252.448px" y="24.974px" style="font-family:'ForestionAged', 'Forestion';font-size:83.333px;">H</text>
                </g>
                <g transform="matrix(-0.62616,-0.779694,0.779694,-0.62616,-498.396678,-269.642972)">
                    <text x="-313.841px" y="-15.338px" style="font-family:'ForestionAged', 'Forestion';font-size:83.333px;">a</text>
                </g>
                <g transform="matrix(-0.401734,-0.915757,0.915757,-0.401734,-436.685753,-401.671394)">
                    <text x="-349.549px" y="-58.192px" style="font-family:'ForestionAged', 'Forestion';font-size:83.333px;">y</text>
                </g>
                <g transform="matrix(-0.087792,-0.996139,0.996139,-0.087792,-292.747179,-500.905732)">
                    <text x="-375.724px" y="-116.412px" style="font-family:'ForestionAged', 'Forestion';font-size:83.333px;">e</text>
                </g>
                <g transform="matrix(0.22591,-0.974148,0.974148,0.22591,-114.517029,-515.768008)">
                    <text x="-381.791px" y="-185.827px" style="font-family:'ForestionAged', 'Forestion';font-size:83.333px;">s</text>
                </g>
            </g>
            <g transform="matrix(-0.867119,0.996195,-0.996195,-0.867119,506.091205,603.476656)">
                <g transform="matrix(0.026948,-0.999637,0.999637,0.026948,212.845332,417.674846)">
                    <text x="320.966px" y="99.507px" style="font-family:'ForestionAged', 'Forestion';font-size:83.333px;">M</text>
                </g>
                <g transform="matrix(-0.244118,-0.969745,0.969745,-0.244118,378.614213,342.305226)">
                    <text x="322.714px" y="23.595px" style="font-family:'ForestionAged', 'Forestion';font-size:83.333px;">C</text>
                </g>
                <g transform="matrix(-0.499318,-0.866419,0.866419,-0.499318,497.833142,195.289487)">
                    <text x="305.343px" y="-46.198px" style="font-family:'ForestionAged', 'Forestion';font-size:83.333px;">M</text>
                </g>
                <g transform="matrix(-0.707633,-0.70658,0.70658,-0.707633,534.641108,-1.748936)">
                    <text x="266.959px" y="-111.486px" style="font-family:'ForestionAged', 'Forestion';font-size:83.333px;">X</text>
                </g>
                <g transform="matrix(-0.857623,-0.514279,0.514279,-0.857623,493.809613,-177.086248)">
                    <text x="222.392px" y="-156.898px" style="font-family:'ForestionAged', 'Forestion';font-size:83.333px;">C</text>
                </g>
                <g transform="matrix(-0.949116,-0.314927,0.314927,-0.949116,374.018818,-324.1347)">
                    <text x="160.823px" y="-192.283px" style="font-family:'ForestionAged', 'Forestion';font-size:83.333px;">I</text>
                </g>
                <g transform="matrix(-0.98966,-0.143433,0.143433,-0.98966,260.863778,-395.304442)">
                    <text x="116.183px" y="-207.055px" style="font-family:'ForestionAged', 'Forestion';font-size:83.333px;">I</text>
                </g>
                <g transform="matrix(-0.99957,0.029324,-0.029324,-0.99957,133.262503,-429.439307)">
                    <text x="69.78px" y="-213.742px" style="font-family:'ForestionAged', 'Forestion';font-size:83.333px;">I</text>
                </g>
            </g>
            <g transform="matrix(-0.729188,1.101174,-1.101174,-0.729188,404.628386,610.49201)">
                <circle cx="0" cy="0" r="286.729" style="fill:none;stroke:black;stroke-width:12.5px;"/>
            </g>
        </g>
    </g>
</svg>
